<svg xmlns="http://www.w3.org/2000/svg" viewBox="0 0 34.32 34.7"><path d="M34.12,25.6v-1c0-1.7.1-3.3-.8-4.4s-2.7-1.6-5.1-1.6h-1c-.6,0-1.3.1-2,.1a16.12,16.12,0,0,1-2.6-.2,1.54,1.54,0,0,1-1.1-1.6,1.41,1.41,0,0,1,1.1-1.4,15,15,0,0,1,3.8-.2h.7c.7,0,1.3.1,2,.1h0a7.3,7.3,0,0,0,3.5-.6A2.85,2.85,0,0,0,34,12.1a26.39,26.39,0,0,0-.1-4c0-1-.1-1.9-.1-3a38.36,38.36,0,0,1,.3-4.6h-1.3c-1.2,0-2.5-.1-3.8-.2-1-.1-2-.1-3-.1a10.55,10.55,0,0,0-6.6,1.9c-1.3.9-1.1,3.1-.9,5.2a11.28,11.28,0,0,1-.2,4.2,1.32,1.32,0,0,1-1.4.9,1.5,1.5,0,0,1-1.5-1.1,11.06,11.06,0,0,1-.2-3.7c.1-1.8.2-3.6-.7-4.9Q12.87,0,8.82,0C7.62,0,6.32.1,5,.2A28.63,28.63,0,0,1,0,.4c0,.4.1.8.1,1.2,0,.6.1,1.2.1,1.9,0,.9-.1,1.9-.1,2.8C0,7.4,0,8.4,0,9.5a16.35,16.35,0,0,0,.6,4.2c.5,1.6,1.3,1.9,3,1.9h3.7a24.3,24.3,0,0,1,2.7,0,1.75,1.75,0,0,1,1.7,1.7,1.6,1.6,0,0,1-1.2,1.4c-1,.1-2.1.1-3.3.1H5.82c-2.8,0-5.4.2-5.7,2.8a30.08,30.08,0,0,0,0,5.2c.1.9.1,1.8.2,2.8,0,1.4-.2,3.8-.3,4.9,1.1,0,3.5-.1,4.7,0a26.23,26.23,0,0,0,2.7.1c5.1,0,6.7-1.1,7.1-2,.8-1.7.7-5.8.7-7.5a3.76,3.76,0,0,1,.5-2,1.21,1.21,0,0,1,1.2-.7c.9,0,1.5,1.1,1.6,2.2v2.2c-.1,2.2-.2,5,1.2,6.1a9.72,9.72,0,0,0,6,1.8c1,0,2-.1,3-.2l.8-.1a38.86,38.86,0,0,1,4.8-.1,30.28,30.28,0,0,1-.2-3.1c0-.8.1-1.8.1-2.8A13.57,13.57,0,0,1,34.12,25.6Z" fill="#5db781"/></svg>